<svg xmlns="http://www.w3.org/2000/svg" width="220" height="50" viewBox="0 0 220 50" fill="none">
  <!-- Text -->
  <text x="50" y="30" font-family="Arial, sans-serif" font-size="22" font-weight="600" fill="#2C2C2C">
    Sakhila’s
  </text>
  <text x="145" y="30" font-family="Arial, sans-serif" font-size="22" font-weight="600" fill="#1F6F5C">
    Blog
  </text>

  <!-- Leaf Icon -->
  <path d="M20 2C31 2 40 11 40 22V36C40 37.6 39.4 39.1 38.3 40.2C37.1 41.4 35.6 42 34 42H21V33.2C21 31.2 21.1 29.1 22.2 27.4C23 26.2 24 25.2 25.2 24.4C26.4 23.6 27.8 23 29.2 22.8L29.6 22.7C29.8 22.6 30 22.4 30 22.2C30 22 29.8 21.8 29.6 21.7L29.2 21.6C27.1 21.3 25.2 20.3 23.7 18.8C22.2 17.3 21.2 15.4 20.9 13.3L20.8 12.9C20.7 12.7 20.6 12.6 20.5 12.5C20.3 12.3 20.2 12.2 20 12.2C19.8 12.2 19.7 12.3 19.5 12.5C19.4 12.6 19.3 12.7 19.2 12.9L19.1 13.3C18.9 14.8 18.4 16.1 17.6 17.3C16.8 18.5 15.8 19.5 14.6 20.3C12.9 21.3 10.8 21.4 8.8 21.4H0C0.5 10.6 9.3 2 20 2Z" fill="#1F6F5C"/>
  <path d="M0 24H8.8C10.8 24 12.9 24.1 14.6 25.1C15.9 25.9 17 27 17.8 28.4C18.9 30.1 19 32.1 19 34.1V42H6C4.4 42 2.9 41.4 1.8 40.2C0.6 39 0 37.6 0 36V24Z" fill="#1F6F5C"/>
</svg>
